<?xml version="1.0" encoding="UTF-8" standalone="no"?>
<!DOCTYPE svg PUBLIC "-//W3C//DTD SVG 1.1//EN" "http://www.w3.org/Graphics/SVG/1.1/DTD/svg11.dtd">
<svg width="100%" height="100%" viewBox="0 0 538 592" version="1.1" xmlns="http://www.w3.org/2000/svg" xmlns:xlink="http://www.w3.org/1999/xlink" xml:space="preserve" xmlns:serif="http://www.serif.com/" style="fill-rule:evenodd;clip-rule:evenodd;stroke-linejoin:round;stroke-miterlimit:2;">
    <g id="Layer-1" serif:id="Layer 1" transform="matrix(4.16667,0,0,4.16667,-380.773,-454.167)">
        <g transform="matrix(1,0,0,1,93.7115,175.05)">
            <path d="M0,-40.86L0,11.308L60.941,7.643L60.941,-51.855L0,-40.86ZM-2.326,13.777L-2.326,-42.804L63.267,-54.637L63.267,9.832L-2.326,13.777Z" style="fill:white;fill-rule:nonzero;"/>
        </g>
        <g transform="matrix(1,0,0,1,102.282,141.725)">
            <path d="M0,29.106C-0.423,29.106 -0.831,28.875 -1.037,28.473C-1.329,27.901 -1.103,27.201 -0.53,26.907C3.274,24.963 5.217,23.954 8.941,21.986C14.683,13.755 17.545,9.533 23.363,0.718L23.837,0L24.662,0.244C30.508,1.975 33.379,2.863 39.29,4.77L39.569,4.86L39.773,5.073C42.562,7.989 43.955,9.469 46.744,12.476C47.182,12.946 47.155,13.682 46.682,14.12C46.217,14.556 45.481,14.532 45.041,14.057C42.329,11.135 40.941,9.66 38.296,6.893C32.874,5.146 30.022,4.261 24.828,2.718C19.26,11.15 16.391,15.375 10.688,23.548L10.527,23.779L10.277,23.91C6.377,25.972 4.428,26.985 0.528,28.979C0.359,29.065 0.178,29.106 0,29.106" style="fill:white;fill-rule:nonzero;"/>
        </g>
        <g transform="matrix(-0.105203,-0.994451,-0.994451,0.105203,111.399,161.992)">
            <path d="M-2.953,-3.262C-4.412,-3.108 -5.587,-1.658 -5.578,-0.024C-5.569,1.611 -4.394,2.812 -2.953,2.659C-1.512,2.507 -0.337,1.057 -0.329,-0.58C-0.32,-2.216 -1.495,-3.417 -2.953,-3.262" style="fill:white;fill-rule:nonzero;"/>
        </g>
        <g transform="matrix(1,0,0,1,112.371,166.591)">
            <path d="M0,-3.481C-0.086,-3.481 -0.175,-3.477 -0.264,-3.466C-1.44,-3.336 -2.433,-2.382 -2.433,-1.382C-2.433,-0.88 -2.188,-0.551 -1.98,-0.365C-1.604,-0.024 -1.045,0.145 -0.447,0.078C0.723,-0.04 1.71,-0.994 1.71,-2.005C1.71,-2.415 1.552,-2.775 1.249,-3.044C0.934,-3.328 0.488,-3.481 0,-3.481M-0.688,1.834C-1.624,1.834 -2.505,1.514 -3.151,0.929C-3.813,0.329 -4.178,-0.491 -4.178,-1.382C-4.178,-3.292 -2.544,-4.968 -0.457,-5.199C0.622,-5.315 1.67,-5.007 2.412,-4.344C3.085,-3.744 3.455,-2.912 3.455,-2.005C3.455,-0.074 1.817,1.603 -0.274,1.813C-0.413,1.827 -0.55,1.834 -0.688,1.834" style="fill:white;fill-rule:nonzero;"/>
        </g>
        <g transform="matrix(-0.145325,-0.989384,-0.989384,0.145325,125.769,140.517)">
            <path d="M-2.954,-3.398C-4.45,-3.178 -5.654,-1.669 -5.646,-0.027C-5.637,1.615 -4.431,2.771 -2.954,2.554C-1.476,2.337 -0.27,0.827 -0.261,-0.818C-0.252,-2.462 -1.458,-3.617 -2.954,-3.398" style="fill:white;fill-rule:nonzero;"/>
        </g>
        <g transform="matrix(1,0,0,1,127.089,145.143)">
            <path d="M0,-3.651C-0.111,-3.651 -0.228,-3.642 -0.343,-3.625C-1.538,-3.442 -2.547,-2.393 -2.547,-1.333C-2.547,-0.908 -2.385,-0.544 -2.081,-0.28C-1.715,0.038 -1.168,0.166 -0.598,0.092C0.593,-0.076 1.599,-1.124 1.599,-2.197C1.599,-2.633 1.436,-3.004 1.126,-3.269C0.838,-3.518 0.438,-3.651 0,-3.651M-0.92,1.86C-1.79,1.86 -2.607,1.572 -3.224,1.037C-3.911,0.441 -4.291,-0.401 -4.291,-1.333C-4.291,-3.269 -2.674,-5.033 -0.606,-5.349C0.459,-5.511 1.513,-5.237 2.265,-4.592C2.959,-3.994 3.344,-3.143 3.344,-2.197C3.344,-0.237 1.719,1.527 -0.353,1.819C-0.543,1.846 -0.733,1.86 -0.92,1.86" style="fill:white;fill-rule:nonzero;"/>
        </g>
        <g transform="matrix(-0.132957,-0.991122,-0.991122,0.132957,140.331,144.724)">
            <path d="M-2.953,-3.356C-4.496,-3.149 -5.739,-1.653 -5.73,-0.013C-5.722,1.626 -4.478,2.79 -2.953,2.586C-1.428,2.381 -0.185,0.883 -0.176,-0.758C-0.167,-2.4 -1.41,-3.563 -2.953,-3.356" style="fill:white;fill-rule:nonzero;"/>
        </g>
        <g transform="matrix(1,0,0,1,141.538,149.453)">
            <path d="M0,-3.815C-0.103,-3.815 -0.205,-3.807 -0.312,-3.792C-1.499,-3.627 -2.503,-2.558 -2.503,-1.459C-2.503,-0.995 -2.331,-0.599 -2.004,-0.31C-1.631,0.016 -1.125,0.15 -0.543,0.083C0.641,-0.069 1.64,-1.137 1.64,-2.249C1.64,-2.718 1.46,-3.132 1.133,-3.418C0.833,-3.677 0.438,-3.815 0,-3.815M-0.825,1.845C-1.701,1.845 -2.53,1.549 -3.155,0.999C-3.859,0.379 -4.248,-0.493 -4.248,-1.459C-4.248,-3.447 -2.624,-5.231 -0.552,-5.521C0.502,-5.66 1.53,-5.381 2.278,-4.733C2.991,-4.112 3.384,-3.23 3.384,-2.249C3.384,-0.237 1.758,1.547 -0.32,1.813C-0.488,1.835 -0.656,1.845 -0.825,1.845" style="fill:white;fill-rule:nonzero;"/>
        </g>
        <g transform="matrix(-1,0,0,1,101.064,174.66)">
            <path d="M-0.002,-2.866C0.902,-2.782 1.639,-2.072 1.639,-1.283C1.639,-0.494 0.902,0.084 -0.002,0.006C-0.906,-0.074 -1.641,-0.784 -1.641,-1.579C-1.641,-2.373 -0.906,-2.95 -0.002,-2.866" style="fill:white;fill-rule:nonzero;"/>
        </g>
        <g transform="matrix(-1,0,0,1,101.064,167.841)">
            <path d="M-0.002,-2.864C0.902,-2.766 1.639,-2.046 1.639,-1.257C1.639,-0.468 0.902,0.098 -0.002,0.006C-0.906,-0.086 -1.641,-0.806 -1.641,-1.601C-1.641,-2.396 -0.906,-2.962 -0.002,-2.864" style="fill:white;fill-rule:nonzero;"/>
        </g>
        <g transform="matrix(-1,0,0,1,101.064,161.022)">
            <path d="M-0.002,-2.864C0.902,-2.753 1.639,-2.022 1.639,-1.233C1.639,-0.444 0.902,0.111 -0.002,0.006C-0.906,-0.1 -1.641,-0.831 -1.641,-1.625C-1.641,-2.42 -0.906,-2.975 -0.002,-2.864" style="fill:white;fill-rule:nonzero;"/>
        </g>
        <g transform="matrix(-1,0,0,1,101.064,147.386)">
            <path d="M-0.002,-2.864C0.902,-2.726 1.639,-1.973 1.639,-1.184C1.639,-0.395 0.902,0.138 -0.002,0.006C-0.906,-0.127 -1.641,-0.879 -1.641,-1.674C-1.641,-2.468 -0.906,-3.002 -0.002,-2.864" style="fill:white;fill-rule:nonzero;"/>
        </g>
        <g transform="matrix(-1,0,0,1,101.064,140.569)">
            <path d="M-0.002,-2.866C0.902,-2.715 1.639,-1.951 1.639,-1.162C1.639,-0.373 0.902,0.151 -0.002,0.005C-0.906,-0.14 -1.641,-0.906 -1.641,-1.7C-1.641,-2.495 -0.906,-3.017 -0.002,-2.866" style="fill:white;fill-rule:nonzero;"/>
        </g>
        <g transform="matrix(-1,0,0,1,108.365,180.516)">
            <path d="M0,-2.909C0.904,-2.837 1.639,-2.128 1.639,-1.326C1.639,-0.525 0.904,0.072 0,0.006C-0.904,-0.06 -1.639,-0.769 -1.639,-1.576C-1.639,-2.384 -0.904,-2.981 0,-2.909" style="fill:white;fill-rule:nonzero;"/>
        </g>
        <g transform="matrix(-1,0,0,1,116.152,179.946)">
            <path d="M0,-2.958C0.904,-2.886 1.639,-2.166 1.639,-1.351C1.639,-0.536 0.904,0.072 0,0.006C-0.904,-0.061 -1.639,-0.78 -1.639,-1.601C-1.639,-2.422 -0.904,-3.03 0,-2.958" style="fill:white;fill-rule:nonzero;"/>
        </g>
        <g transform="matrix(-1,0,0,1,131.725,178.807)">
            <path d="M0,-3.055C0.904,-2.983 1.639,-2.242 1.639,-1.4C1.639,-0.558 0.904,0.072 0,0.006C-0.904,-0.061 -1.639,-0.803 -1.639,-1.65C-1.639,-2.497 -0.904,-3.127 0,-3.055" style="fill:white;fill-rule:nonzero;"/>
        </g>
        <g transform="matrix(-1,0,0,1,139.511,178.236)">
            <path d="M-0.002,-3.103C0.902,-3.031 1.639,-2.278 1.639,-1.423C1.639,-0.568 0.902,0.072 -0.002,0.006C-0.906,-0.06 -1.641,-0.813 -1.641,-1.674C-1.641,-2.534 -0.906,-3.175 -0.002,-3.103" style="fill:white;fill-rule:nonzero;"/>
        </g>
        <g transform="matrix(-1,0,0,1,147.298,177.666)">
            <path d="M0,-3.152C0.904,-3.08 1.639,-2.317 1.639,-1.448C1.639,-0.58 0.904,0.072 0,0.006C-0.905,-0.06 -1.639,-0.824 -1.639,-1.698C-1.639,-2.572 -0.905,-3.224 0,-3.152" style="fill:white;fill-rule:nonzero;"/>
        </g>
        <g transform="matrix(-1,0,0,1,101.064,154.204)">
            <path d="M-0.002,-2.865C0.902,-2.74 1.639,-1.997 1.639,-1.208C1.639,-0.419 0.902,0.125 -0.002,0.006C-0.906,-0.113 -1.641,-0.855 -1.641,-1.649C-1.641,-2.444 -0.906,-2.99 -0.002,-2.865" style="fill:white;fill-rule:nonzero;"/>
        </g>
        <g transform="matrix(-1,0,0,1,123.94,179.376)">
            <path d="M0.002,-3.006C0.906,-2.934 1.641,-2.203 1.641,-1.375C1.641,-0.547 0.906,0.072 0.002,0.006C-0.902,-0.06 -1.639,-0.791 -1.639,-1.625C-1.639,-2.459 -0.902,-3.078 0.002,-3.006" style="fill:white;fill-rule:nonzero;"/>
        </g>
        <g transform="matrix(1,0,0,1,93.7115,188.687)">
            <path d="M0,52.183L60.941,55.848L60.941,-3.666L0,-0.001L0,52.183ZM63.267,58.317L-2.326,54.372L-2.326,-2.19L63.267,-6.134L63.267,58.317Z" style="fill:white;fill-rule:nonzero;"/>
        </g>
        <g transform="matrix(1,0,0,1,111.689,205.809)">
            <path d="M0,16.817L-10.215,6.927C-10.678,6.48 -10.689,5.744 -10.243,5.283C-9.796,4.821 -9.06,4.809 -8.598,5.255L0.654,14.212C6.018,12.681 8.925,11.823 14.446,10.15C20.188,6.637 23.05,4.833 28.893,1.046C31.005,0 35.67,1.838 37.589,2.671C38.178,2.926 38.448,3.611 38.193,4.199C37.937,4.791 37.258,5.062 36.662,4.804C33.855,3.586 30.688,2.761 30.039,3.065C24.252,6.826 21.381,8.635 15.532,12.212L15.264,12.332C9.415,14.106 6.494,14.966 0.646,16.633L0,16.817Z" style="fill:white;fill-rule:nonzero;"/>
        </g>
        <g transform="matrix(0.0144322,-0.999896,-0.999896,-0.0144322,112.085,218.677)">
            <path d="M-2.936,-2.911C-4.402,-2.932 -5.583,-1.631 -5.575,-0.005C-5.565,1.622 -4.383,2.958 -2.936,2.978C-1.487,2.999 -0.306,1.698 -0.296,0.071C-0.288,-1.555 -1.469,-2.89 -2.936,-2.911" style="fill:white;fill-rule:nonzero;"/>
        </g>
        <g transform="matrix(1,0,0,1,111.98,223.379)">
            <path d="M0,-3.535C-0.6,-3.535 -1.165,-3.315 -1.556,-2.929C-1.87,-2.618 -2.042,-2.22 -2.042,-1.81C-2.042,-0.835 -1.106,-0.023 0.048,-0.001C0.668,0.012 1.213,-0.202 1.605,-0.584C1.926,-0.898 2.101,-1.302 2.101,-1.725C2.101,-2.713 1.167,-3.525 0.022,-3.535L0,-3.535ZM0.096,1.745C0.068,1.745 0.038,1.744 0.012,1.744C-2.083,1.7 -3.788,0.107 -3.788,-1.81C-3.788,-2.689 -3.431,-3.526 -2.784,-4.168C-2.06,-4.882 -1.006,-5.257 0.036,-5.28C2.138,-5.26 3.846,-3.666 3.846,-1.725C3.846,-0.83 3.484,0.017 2.825,0.661C2.121,1.352 1.129,1.745 0.096,1.745" style="fill:white;fill-rule:nonzero;"/>
        </g>
        <g transform="matrix(0.00458477,-0.999989,-0.999989,-0.00458477,126.635,214.091)">
            <path d="M-2.937,-2.938C-4.449,-2.945 -5.667,-1.633 -5.658,-0.007C-5.649,1.619 -4.43,2.944 -2.937,2.951C-1.443,2.957 -0.225,1.644 -0.216,0.018C-0.207,-1.608 -1.425,-2.932 -2.937,-2.938" style="fill:white;fill-rule:nonzero;"/>
        </g>
        <g transform="matrix(1,0,0,1,126.619,218.877)">
            <path d="M0,-3.698L-0.002,-3.698C-1.146,-3.697 -2.076,-2.873 -2.076,-1.863C-2.076,-0.847 -1.143,-0.012 0.005,-0C0.563,0.031 1.149,-0.214 1.54,-0.601C1.881,-0.938 2.069,-1.377 2.069,-1.835C2.069,-2.297 1.881,-2.738 1.538,-3.081C1.146,-3.473 0.584,-3.698 0,-3.698M0.025,1.744L-0.014,1.744C-2.112,1.723 -3.82,0.104 -3.82,-1.863C-3.82,-3.835 -2.107,-5.441 -0.004,-5.442L0,-5.442C1.043,-5.442 2.054,-5.032 2.77,-4.316C3.443,-3.643 3.814,-2.762 3.814,-1.835C3.814,-0.907 3.443,-0.03 2.77,0.638C2.059,1.343 1.059,1.744 0.025,1.744" style="fill:white;fill-rule:nonzero;"/>
        </g>
        <g transform="matrix(-0.0139229,-0.999903,-0.999903,0.0139229,141.033,204.86)">
            <path d="M-2.953,-2.977C-4.51,-2.955 -5.765,-1.619 -5.755,0.007C-5.747,1.633 -4.492,2.934 -2.953,2.913C-1.415,2.891 -0.161,1.555 -0.152,-0.071C-0.142,-1.698 -1.397,-2.998 -2.953,-2.977" style="fill:white;fill-rule:nonzero;"/>
        </g>
        <g transform="matrix(1,0,0,1,141.168,209.745)">
            <path d="M0,-3.863C-0.014,-3.863 -0.03,-3.862 -0.044,-3.862C-1.197,-3.839 -2.133,-2.955 -2.133,-1.891C-2.133,-1.41 -1.937,-0.952 -1.586,-0.602C-1.19,-0.209 -0.682,0.005 -0.068,-0.002C1.076,-0.01 2.01,-0.895 2.01,-1.973C2.01,-2.466 1.812,-2.931 1.453,-3.282C1.071,-3.657 0.559,-3.863 0,-3.863M-0.089,1.743C-1.127,1.743 -2.095,1.351 -2.814,0.637C-3.501,-0.044 -3.878,-0.941 -3.878,-1.891C-3.878,-3.898 -2.174,-5.565 -0.08,-5.606C0.98,-5.599 1.946,-5.245 2.676,-4.529C3.37,-3.847 3.754,-2.938 3.754,-1.973C3.754,0.059 2.046,1.725 -0.055,1.743L-0.089,1.743Z" style="fill:white;fill-rule:nonzero;"/>
        </g>
        <g transform="matrix(-1,0,0,1,101.064,230.07)">
            <path d="M-0.002,-2.877C0.902,-2.901 1.639,-2.28 1.639,-1.491C1.639,-0.702 0.902,-0.036 -0.002,-0.005C-0.906,0.024 -1.641,-0.598 -1.641,-1.393C-1.641,-2.187 -0.906,-2.853 -0.002,-2.877" style="fill:white;fill-rule:nonzero;"/>
        </g>
        <g transform="matrix(-1,0,0,1,101.064,223.25)">
            <path d="M-0.002,-2.875C0.902,-2.886 1.639,-2.254 1.639,-1.465C1.639,-0.676 0.902,-0.021 -0.002,-0.005C-0.906,0.011 -1.641,-0.62 -1.641,-1.415C-1.641,-2.21 -0.906,-2.864 -0.002,-2.875" style="fill:white;fill-rule:nonzero;"/>
        </g>
        <g transform="matrix(-1,0,0,1,101.064,216.427)">
            <path d="M-0.002,-2.871C0.902,-2.869 1.639,-2.225 1.639,-1.436C1.639,-0.648 0.902,-0.004 -0.002,-0.001C-0.906,0.002 -1.641,-0.641 -1.641,-1.435C-1.641,-2.23 -0.906,-2.873 -0.002,-2.871" style="fill:white;fill-rule:nonzero;"/>
        </g>
        <g transform="matrix(-1,0,0,1,101.064,202.785)">
            <path d="M-0.002,-2.865C0.902,-2.836 1.639,-2.171 1.639,-1.382C1.639,-0.593 0.902,0.029 -0.002,0.005C-0.906,-0.019 -1.641,-0.683 -1.641,-1.478C-1.641,-2.272 -0.906,-2.894 -0.002,-2.865" style="fill:white;fill-rule:nonzero;"/>
        </g>
        <g transform="matrix(-1,0,0,1,101.064,195.967)">
            <path d="M-0.002,-2.866C0.902,-2.823 1.639,-2.148 1.639,-1.359C1.639,-0.57 0.902,0.042 -0.002,0.005C-0.906,-0.032 -1.641,-0.708 -1.641,-1.503C-1.641,-2.298 -0.906,-2.908 -0.002,-2.866" style="fill:white;fill-rule:nonzero;"/>
        </g>
        <g transform="matrix(-1,0,0,1,108.365,236.805)">
            <path d="M0,-2.922C0.904,-2.958 1.639,-2.338 1.639,-1.536C1.639,-0.734 0.904,-0.049 0,-0.006C-0.904,0.036 -1.639,-0.585 -1.639,-1.392C-1.639,-2.199 -0.904,-2.885 0,-2.922" style="fill:white;fill-rule:nonzero;"/>
        </g>
        <g transform="matrix(-1,0,0,1,116.152,237.17)">
            <path d="M0,-2.969C0.904,-3.006 1.639,-2.374 1.639,-1.559C1.639,-0.744 0.904,-0.048 0,-0.005C-0.904,0.037 -1.639,-0.595 -1.639,-1.415C-1.639,-2.236 -0.904,-2.932 0,-2.969" style="fill:white;fill-rule:nonzero;"/>
        </g>
        <g transform="matrix(-1,0,0,1,131.725,237.904)">
            <path d="M0,-3.067C0.904,-3.104 1.639,-2.451 1.639,-1.609C1.639,-0.767 0.904,-0.048 0,-0.006C-0.904,0.037 -1.639,-0.617 -1.639,-1.464C-1.639,-2.312 -0.904,-3.03 0,-3.067" style="fill:white;fill-rule:nonzero;"/>
        </g>
        <g transform="matrix(-1,0,0,1,139.511,238.269)">
            <path d="M-0.002,-3.114C0.902,-3.151 1.639,-2.487 1.639,-1.632C1.639,-0.777 0.902,-0.048 -0.002,-0.005C-0.906,0.037 -1.641,-0.627 -1.641,-1.488C-1.641,-2.348 -0.906,-3.078 -0.002,-3.114" style="fill:white;fill-rule:nonzero;"/>
        </g>
        <g transform="matrix(-1,0,0,1,147.298,238.636)">
            <path d="M0,-3.163C0.904,-3.2 1.639,-2.524 1.639,-1.656C1.639,-0.788 0.904,-0.048 0,-0.005C-0.905,0.037 -1.639,-0.638 -1.639,-1.512C-1.639,-2.387 -0.905,-3.126 0,-3.163" style="fill:white;fill-rule:nonzero;"/>
        </g>
        <g transform="matrix(-1,0,0,1,101.064,209.603)">
            <path d="M-0.002,-2.865C0.902,-2.849 1.639,-2.195 1.639,-1.406C1.639,-0.616 0.902,0.016 -0.002,0.006C-0.906,-0.005 -1.641,-0.658 -1.641,-1.452C-1.641,-2.247 -0.906,-2.881 -0.002,-2.865" style="fill:white;fill-rule:nonzero;"/>
        </g>
        <g transform="matrix(-1,0,0,1,123.94,237.538)">
            <path d="M0.002,-3.019C0.906,-3.055 1.641,-2.413 1.641,-1.584C1.641,-0.756 0.906,-0.049 0.002,-0.006C-0.902,0.036 -1.639,-0.607 -1.639,-1.44C-1.639,-2.274 -0.902,-2.982 0.002,-3.019" style="fill:white;fill-rule:nonzero;"/>
        </g>
        <g transform="matrix(1,0,0,1,156.978,184.882)">
            <path d="M0,59.793L60.943,63.458L60.943,-3.665L0,0L0,59.793ZM63.27,65.927L-2.325,61.982L-2.325,-2.189L63.27,-6.134L63.27,65.927Z" style="fill:white;fill-rule:nonzero;"/>
        </g>
        <g transform="matrix(1,0,0,1,212.085,197.089)">
            <path d="M0,28.095C-0.448,28.095 -0.872,27.836 -1.065,27.4C-4.055,20.598 -5.572,17.186 -8.511,10.67C-14.026,7.342 -16.886,5.659 -22.316,2.549C-27.772,4.47 -30.691,5.472 -36.247,7.334C-40.042,10.262 -41.991,11.738 -45.839,14.602C-46.354,14.983 -47.081,14.878 -47.468,14.364C-47.852,13.849 -47.745,13.12 -47.229,12.737C-43.343,9.844 -41.398,8.37 -37.512,5.372L-37.172,5.191C-31.339,3.236 -28.42,2.233 -22.587,0.178L-22.085,0L-21.624,0.265C-15.766,3.617 -12.895,5.306 -6.998,8.866L-6.689,9.053L-6.54,9.384C-3.498,16.124 -1.979,19.54 1.065,26.464C1.324,27.053 1.056,27.739 0.468,27.996C0.315,28.063 0.156,28.095 0,28.095" style="fill:white;fill-rule:nonzero;"/>
        </g>
        <g transform="matrix(-0.0210515,-0.999778,-0.999778,0.0210515,175.162,200.575)">
            <path d="M-2.953,-2.998C-4.616,-2.963 -5.956,-1.616 -5.947,0.01C-5.938,1.636 -4.597,2.927 -2.953,2.892C-1.31,2.858 0.03,1.51 0.039,-0.116C0.049,-1.743 -1.292,-3.033 -2.953,-2.998" style="fill:white;fill-rule:nonzero;"/>
        </g>
        <g transform="matrix(1,0,0,1,175.354,205.612)">
            <path d="M0,-4.208C-0.019,-4.208 -0.037,-4.208 -0.055,-4.207C-1.209,-4.176 -2.149,-3.197 -2.149,-2.024C-2.149,-1.457 -1.931,-0.931 -1.536,-0.541C-1.149,-0.16 -0.661,0.042 -0.091,0.036C1.059,0.019 1.994,-0.961 1.994,-2.147C1.994,-2.727 1.773,-3.261 1.372,-3.65C1.001,-4.011 0.518,-4.208 0,-4.208M-0.123,1.781C-1.118,1.781 -2.052,1.399 -2.76,0.702C-3.491,-0.018 -3.894,-0.987 -3.894,-2.024C-3.894,-4.134 -2.192,-5.895 -0.101,-5.951C0.886,-5.989 1.867,-5.604 2.589,-4.9C3.329,-4.178 3.738,-3.202 3.738,-2.147C3.738,-0.014 2.032,1.749 -0.063,1.781L-0.123,1.781Z" style="fill:white;fill-rule:nonzero;"/>
        </g>
        <g transform="matrix(-0.0295337,-0.999564,-0.999564,0.0295337,189.718,195.562)">
            <path d="M-2.953,-3.024C-4.66,-2.974 -6.037,-1.614 -6.028,0.012C-6.019,1.639 -4.642,2.917 -2.953,2.868C-1.265,2.818 0.112,1.457 0.121,-0.17C0.13,-1.797 -1.246,-3.074 -2.953,-3.024" style="fill:white;fill-rule:nonzero;"/>
        </g>
        <g transform="matrix(1,0,0,1,189.981,200.709)">
            <path d="M0,-4.403C-0.022,-4.403 -0.045,-4.402 -0.067,-4.401C-1.227,-4.36 -2.171,-3.332 -2.171,-2.111C-2.171,-1.509 -1.944,-0.956 -1.533,-0.553C-1.148,-0.181 -0.663,0.025 -0.118,0.006C1.036,-0.022 1.975,-1.049 1.975,-2.285C1.975,-2.901 1.745,-3.461 1.327,-3.864C0.966,-4.213 0.498,-4.403 0,-4.403M-0.165,1.751C-1.136,1.751 -2.051,1.377 -2.75,0.695C-3.502,-0.039 -3.915,-1.035 -3.915,-2.111C-3.915,-4.26 -2.217,-6.07 -0.129,-6.145C0.913,-6.154 1.817,-5.815 2.54,-5.119C3.301,-4.384 3.719,-3.378 3.719,-2.285C3.719,-0.111 2.015,1.7 -0.077,1.75C-0.106,1.75 -0.136,1.751 -0.165,1.751" style="fill:white;fill-rule:nonzero;"/>
        </g>
        <g transform="matrix(-0.0139229,-0.999903,-0.999903,0.0139229,204.301,203.98)">
            <path d="M-2.954,-2.976C-4.706,-2.952 -6.119,-1.614 -6.11,0.012C-6.1,1.638 -4.688,2.938 -2.954,2.913C-1.22,2.889 0.192,1.55 0.202,-0.076C0.211,-1.702 -1.202,-3.001 -2.954,-2.976" style="fill:white;fill-rule:nonzero;"/>
        </g>
        <g transform="matrix(1,0,0,1,204.427,209.217)">
            <path d="M0,-4.568L-0.036,-4.568C-1.19,-4.546 -2.126,-3.503 -2.126,-2.243C-2.126,-1.611 -1.881,-1.005 -1.453,-0.58C-1.072,-0.2 -0.588,0.014 -0.062,0.001C1.086,-0.008 2.02,-1.052 2.02,-2.325C2.02,-2.971 1.771,-3.586 1.338,-4.009C0.97,-4.371 0.495,-4.568 0,-4.568M-0.075,1.745C-1.052,1.745 -1.974,1.36 -2.683,0.658C-3.437,-0.091 -3.87,-1.149 -3.87,-2.243C-3.87,-4.445 -2.167,-6.272 -0.072,-6.313C1.006,-6.284 1.847,-5.955 2.56,-5.255C3.325,-4.505 3.764,-3.437 3.764,-2.325C3.764,-0.098 2.054,1.727 -0.048,1.745L-0.075,1.745Z" style="fill:white;fill-rule:nonzero;"/>
        </g>
        <g transform="matrix(-1,0,0,1,164.332,232.169)">
            <path d="M-0.002,-3.271C0.902,-3.295 1.639,-2.586 1.639,-1.688C1.639,-0.791 0.902,-0.035 -0.002,-0.005C-0.906,0.024 -1.641,-0.686 -1.641,-1.589C-1.641,-2.493 -0.906,-3.247 -0.002,-3.271" style="fill:white;fill-rule:nonzero;"/>
        </g>
        <g transform="matrix(-1,0,0,1,164.332,224.413)">
            <path d="M-0.002,-3.269C0.902,-3.28 1.639,-2.56 1.639,-1.663C1.639,-0.765 0.902,-0.022 -0.002,-0.005C-0.906,0.011 -1.641,-0.709 -1.641,-1.612C-1.641,-2.516 -0.906,-3.258 -0.002,-3.269" style="fill:white;fill-rule:nonzero;"/>
        </g>
        <g transform="matrix(-1,0,0,1,164.332,216.654)">
            <path d="M-0.002,-3.265C0.902,-3.263 1.639,-2.532 1.639,-1.634C1.639,-0.736 0.902,-0.005 -0.002,-0.001C-0.906,0.002 -1.641,-0.729 -1.641,-1.632C-1.641,-2.536 -0.906,-3.267 -0.002,-3.265" style="fill:white;fill-rule:nonzero;"/>
        </g>
        <g transform="matrix(-1,0,0,1,164.332,201.137)">
            <path d="M-0.002,-3.258C0.902,-3.229 1.639,-2.476 1.639,-1.578C1.639,-0.681 0.902,0.029 -0.002,0.006C-0.906,-0.018 -1.641,-0.771 -1.641,-1.674C-1.641,-2.577 -0.906,-3.287 -0.002,-3.258" style="fill:white;fill-rule:nonzero;"/>
        </g>
        <g transform="matrix(-1,0,0,1,164.332,193.384)">
            <path d="M-0.002,-3.26C0.902,-3.218 1.639,-2.454 1.639,-1.556C1.639,-0.658 0.902,0.042 -0.002,0.005C-0.906,-0.031 -1.641,-0.797 -1.641,-1.7C-1.641,-2.604 -0.906,-3.302 -0.002,-3.26" style="fill:white;fill-rule:nonzero;"/>
        </g>
        <g transform="matrix(-1,0,0,1,171.632,239.783)">
            <path d="M0,-3.317C0.904,-3.353 1.639,-2.644 1.639,-1.734C1.639,-0.824 0.904,-0.049 0,-0.007C-0.904,0.036 -1.639,-0.674 -1.639,-1.589C-1.639,-2.505 -0.904,-3.28 0,-3.317" style="fill:white;fill-rule:nonzero;"/>
        </g>
        <g transform="matrix(-1,0,0,1,179.419,240.147)">
            <path d="M0,-3.363C0.904,-3.4 1.639,-2.679 1.639,-1.757C1.639,-0.833 0.904,-0.048 0,-0.006C-0.904,0.037 -1.639,-0.682 -1.639,-1.612C-1.639,-2.542 -0.904,-3.326 0,-3.363" style="fill:white;fill-rule:nonzero;"/>
        </g>
        <g transform="matrix(-1,0,0,1,194.994,240.88)">
            <path d="M0,-3.46C0.905,-3.497 1.639,-2.755 1.639,-1.805C1.639,-0.855 0.904,-0.048 0,-0.005C-0.904,0.037 -1.639,-0.704 -1.639,-1.66C-1.639,-2.616 -0.904,-3.423 0,-3.46" style="fill:white;fill-rule:nonzero;"/>
        </g>
        <g transform="matrix(-1,0,0,1,202.779,241.247)">
            <path d="M-0.002,-3.509C0.902,-3.546 1.639,-2.793 1.639,-1.829C1.639,-0.865 0.902,-0.049 -0.002,-0.006C-0.906,0.037 -1.641,-0.716 -1.641,-1.686C-1.641,-2.655 -0.906,-3.473 -0.002,-3.509" style="fill:white;fill-rule:nonzero;"/>
        </g>
        <g transform="matrix(-1,0,0,1,210.567,241.614)">
            <path d="M0,-3.558C0.905,-3.595 1.639,-2.831 1.639,-1.854C1.639,-0.876 0.905,-0.048 0,-0.006C-0.904,0.037 -1.639,-0.727 -1.639,-1.71C-1.639,-2.693 -0.904,-3.521 0,-3.558" style="fill:white;fill-rule:nonzero;"/>
        </g>
        <g transform="matrix(-1,0,0,1,164.332,208.892)">
            <path d="M-0.002,-3.259C0.902,-3.243 1.639,-2.5 1.639,-1.602C1.639,-0.704 0.902,0.016 -0.002,0.006C-0.906,-0.004 -1.641,-0.746 -1.641,-1.649C-1.641,-2.552 -0.906,-3.275 -0.002,-3.259" style="fill:white;fill-rule:nonzero;"/>
        </g>
        <g transform="matrix(-1,0,0,1,187.208,240.515)">
            <path d="M0.002,-3.413C0.906,-3.449 1.641,-2.719 1.641,-1.781C1.641,-0.845 0.906,-0.049 0.002,-0.006C-0.902,0.036 -1.639,-0.694 -1.639,-1.638C-1.639,-2.58 -0.902,-3.376 0.002,-3.413" style="fill:white;fill-rule:nonzero;"/>
        </g>
        <g transform="matrix(1,0,0,1,156.978,171.246)">
            <path d="M0,-48.47L0,11.307L60.943,7.642L60.943,-59.464L0,-48.47ZM-2.325,13.776L-2.325,-50.414L63.27,-62.246L63.27,9.832L-2.325,13.776Z" style="fill:white;fill-rule:nonzero;"/>
        </g>
        <g transform="matrix(1,0,0,1,165.55,120.281)">
            <path d="M0,54.368C-0.214,54.368 -0.429,54.31 -0.622,54.187C-1.165,53.843 -1.326,53.124 -0.981,52.581C2.907,46.453 4.852,43.333 8.74,36.989L8.932,36.681L9.261,36.534C15.05,33.955 17.967,32.63 23.713,29.965C29.396,25.349 32.261,22.972 37.978,18.122C40.944,11.37 42.461,7.869 45.464,0.865C45.721,0.272 46.404,0 46.993,0.255C47.583,0.508 47.855,1.191 47.604,1.782C44.56,8.878 43.038,12.383 39.999,19.304L39.686,19.722C33.777,24.736 30.909,27.118 25.067,31.862L24.821,32.014C19.087,34.674 16.163,36.004 10.535,38.512C6.765,44.664 4.815,47.786 0.981,53.828C0.761,54.177 0.384,54.368 0,54.368" style="fill:white;fill-rule:nonzero;"/>
        </g>
        <g transform="matrix(-0.105203,-0.994451,-0.994451,0.105203,174.666,155.3)">
            <path d="M-2.953,-3.262C-4.607,-3.088 -5.939,-1.621 -5.93,0.013C-5.921,1.647 -4.588,2.832 -2.953,2.659C-1.319,2.486 0.014,1.019 0.023,-0.617C0.032,-2.253 -1.301,-3.437 -2.953,-3.262" style="fill:white;fill-rule:nonzero;"/>
        </g>
        <g transform="matrix(1,0,0,1,175.597,160.256)">
            <path d="M0,-4.191C-0.075,-4.191 -0.148,-4.187 -0.226,-4.178C-1.399,-4.046 -2.393,-2.93 -2.393,-1.739C-2.393,-1.191 -2.186,-0.701 -1.811,-0.361C-1.44,-0.026 -0.952,0.125 -0.407,0.075C0.783,-0.045 1.751,-1.137 1.751,-2.362C1.751,-2.924 1.542,-3.421 1.162,-3.76C0.849,-4.041 0.442,-4.191 0,-4.191M-0.62,1.83C-1.507,1.83 -2.333,1.518 -2.98,0.932C-3.726,0.259 -4.137,-0.691 -4.137,-1.739C-4.137,-3.811 -2.467,-5.682 -0.418,-5.912C0.613,-6.021 1.585,-5.725 2.325,-5.06C3.079,-4.385 3.495,-3.427 3.495,-2.362C3.495,-0.267 1.821,1.604 -0.234,1.81C-0.364,1.824 -0.493,1.83 -0.62,1.83" style="fill:white;fill-rule:nonzero;"/>
        </g>
        <g transform="matrix(-0.114874,-0.99338,-0.99338,0.114874,189.216,148.344)">
            <path d="M-2.953,-3.295C-4.65,-3.098 -6.018,-1.613 -6.009,0.022C-6,1.658 -4.632,2.828 -2.953,2.634C-1.276,2.44 0.092,0.954 0.101,-0.684C0.111,-2.322 -1.257,-3.491 -2.953,-3.295" style="fill:white;fill-rule:nonzero;"/>
        </g>
        <g transform="matrix(1,0,0,1,190.222,153.364)">
            <path d="M0,-4.347C-0.077,-4.347 -0.154,-4.343 -0.234,-4.333C-1.415,-4.19 -2.412,-3.023 -2.412,-1.784C-2.412,-1.2 -2.196,-0.684 -1.806,-0.335C-1.442,-0.008 -0.961,0.146 -0.434,0.084C0.74,-0.045 1.733,-1.212 1.733,-2.464C1.733,-3.061 1.515,-3.584 1.12,-3.934C0.815,-4.204 0.425,-4.347 0,-4.347M-0.656,1.841C-1.521,1.841 -2.33,1.537 -2.969,0.965C-3.734,0.279 -4.156,-0.697 -4.156,-1.784C-4.156,-3.897 -2.492,-5.818 -0.443,-6.064C0.586,-6.188 1.538,-5.894 2.278,-5.24C3.039,-4.564 3.478,-3.552 3.478,-2.464C3.478,-0.328 1.808,1.592 -0.243,1.818C-0.382,1.833 -0.521,1.841 -0.656,1.841" style="fill:white;fill-rule:nonzero;"/>
        </g>
        <g transform="matrix(-0.132957,-0.991122,-0.991122,0.132957,203.599,136.234)">
            <path d="M-2.953,-3.356C-4.69,-3.123 -6.091,-1.605 -6.081,0.034C-6.073,1.674 -4.672,2.817 -2.953,2.586C-1.235,2.356 0.166,0.837 0.174,-0.805C0.184,-2.447 -1.217,-3.589 -2.953,-3.356" style="fill:white;fill-rule:nonzero;"/>
        </g>
        <g transform="matrix(1,0,0,1,204.752,141.31)">
            <path d="M0,-4.51C-0.087,-4.51 -0.173,-4.504 -0.259,-4.492C-1.447,-4.326 -2.451,-3.095 -2.451,-1.805C-2.451,-1.187 -2.229,-0.652 -1.824,-0.297C-1.465,0.017 -1,0.153 -0.491,0.091C0.692,-0.061 1.694,-1.291 1.694,-2.595C1.694,-3.225 1.47,-3.767 1.062,-4.121C0.77,-4.376 0.399,-4.51 0,-4.51M-0.738,1.852C-1.572,1.852 -2.354,1.561 -2.979,1.013C-3.753,0.333 -4.195,-0.695 -4.195,-1.805C-4.195,-3.991 -2.571,-5.929 -0.5,-6.22C0.497,-6.362 1.465,-6.083 2.207,-5.438C2.989,-4.757 3.438,-3.72 3.438,-2.595C3.438,-0.386 1.81,1.554 -0.269,1.822C-0.428,1.842 -0.584,1.852 -0.738,1.852" style="fill:white;fill-rule:nonzero;"/>
        </g>
        <g transform="matrix(-1,0,0,1,164.332,169.151)">
            <path d="M-0.002,-3.26C0.902,-3.176 1.639,-2.378 1.639,-1.48C1.639,-0.582 0.902,0.084 -0.002,0.006C-0.906,-0.073 -1.641,-0.873 -1.641,-1.776C-1.641,-2.679 -0.906,-3.344 -0.002,-3.26" style="fill:white;fill-rule:nonzero;"/>
        </g>
        <g transform="matrix(-1,0,0,1,164.332,161.395)">
            <path d="M-0.002,-3.258C0.902,-3.16 1.639,-2.352 1.639,-1.454C1.639,-0.556 0.902,0.098 -0.002,0.006C-0.906,-0.086 -1.641,-0.895 -1.641,-1.798C-1.641,-2.701 -0.906,-3.356 -0.002,-3.258" style="fill:white;fill-rule:nonzero;"/>
        </g>
        <g transform="matrix(-1,0,0,1,164.332,153.639)">
            <path d="M-0.002,-3.258C0.902,-3.147 1.639,-2.327 1.639,-1.429C1.639,-0.532 0.902,0.111 -0.002,0.006C-0.906,-0.1 -1.641,-0.919 -1.641,-1.822C-1.641,-2.726 -0.906,-3.369 -0.002,-3.258" style="fill:white;fill-rule:nonzero;"/>
        </g>
        <g transform="matrix(-1,0,0,1,164.332,138.13)">
            <path d="M-0.002,-3.258C0.902,-3.12 1.639,-2.279 1.639,-1.381C1.639,-0.483 0.902,0.138 -0.002,0.006C-0.906,-0.127 -1.641,-0.967 -1.641,-1.871C-1.641,-2.775 -0.906,-3.396 -0.002,-3.258" style="fill:white;fill-rule:nonzero;"/>
        </g>
        <g transform="matrix(-1,0,0,1,164.332,130.377)">
            <path d="M-0.002,-3.26C0.902,-3.109 1.639,-2.257 1.639,-1.359C1.639,-0.461 0.902,0.151 -0.002,0.006C-0.906,-0.14 -1.641,-0.994 -1.641,-1.897C-1.641,-2.801 -0.906,-3.411 -0.002,-3.26" style="fill:white;fill-rule:nonzero;"/>
        </g>
        <g transform="matrix(-1,0,0,1,171.632,175.884)">
            <path d="M0,-3.303C0.904,-3.231 1.639,-2.433 1.639,-1.523C1.639,-0.613 0.904,0.072 0,0.007C-0.904,-0.06 -1.639,-0.857 -1.639,-1.773C-1.639,-2.689 -0.904,-3.375 0,-3.303" style="fill:white;fill-rule:nonzero;"/>
        </g>
        <g transform="matrix(-1,0,0,1,179.419,175.315)">
            <path d="M0,-3.352C0.904,-3.28 1.639,-2.472 1.639,-1.548C1.639,-0.624 0.904,0.072 0,0.005C-0.904,-0.06 -1.639,-0.869 -1.639,-1.798C-1.639,-2.728 -0.904,-3.424 0,-3.352" style="fill:white;fill-rule:nonzero;"/>
        </g>
        <g transform="matrix(-1,0,0,1,194.994,174.175)">
            <path d="M0,-3.449C0.904,-3.377 1.639,-2.547 1.639,-1.596C1.639,-0.646 0.904,0.072 0,0.006C-0.904,-0.06 -1.639,-0.89 -1.639,-1.846C-1.639,-2.803 -0.904,-3.521 0,-3.449" style="fill:white;fill-rule:nonzero;"/>
        </g>
        <g transform="matrix(-1,0,0,1,202.779,173.604)">
            <path d="M-0.002,-3.497C0.902,-3.425 1.639,-2.584 1.639,-1.62C1.639,-0.656 0.902,0.072 -0.002,0.006C-0.906,-0.06 -1.641,-0.901 -1.641,-1.871C-1.641,-2.84 -0.906,-3.569 -0.002,-3.497" style="fill:white;fill-rule:nonzero;"/>
        </g>
        <g transform="matrix(-1,0,0,1,210.567,173.034)">
            <path d="M0,-3.546C0.905,-3.474 1.639,-2.622 1.639,-1.645C1.639,-0.668 0.905,0.072 0,0.006C-0.904,-0.06 -1.639,-0.912 -1.639,-1.895C-1.639,-2.878 -0.904,-3.618 0,-3.546" style="fill:white;fill-rule:nonzero;"/>
        </g>
        <g transform="matrix(-1,0,0,1,164.332,145.885)">
            <path d="M-0.002,-3.259C0.902,-3.134 1.639,-2.302 1.639,-1.405C1.639,-0.507 0.902,0.125 -0.002,0.007C-0.906,-0.113 -1.641,-0.943 -1.641,-1.846C-1.641,-2.749 -0.906,-3.384 -0.002,-3.259" style="fill:white;fill-rule:nonzero;"/>
        </g>
        <g transform="matrix(-1,0,0,1,187.208,174.745)">
            <path d="M0.002,-3.401C0.906,-3.329 1.641,-2.51 1.641,-1.573C1.641,-0.636 0.906,0.072 0.002,0.005C-0.902,-0.061 -1.639,-0.88 -1.639,-1.823C-1.639,-2.766 -0.902,-3.473 0.002,-3.401" style="fill:white;fill-rule:nonzero;"/>
        </g>
    </g>
</svg>
